<svg width="24" height="24" viewBox="0 0 24 24" fill="none" xmlns="http://www.w3.org/2000/svg">
    <rect width="24" height="24" rx="12" fill="#1A1A1A" />
    <path
        d="M17.1753 8.96863H15.5253C15.3331 8.96863 15.1503 8.88655 15.023 8.74338L14.3537 7.9902C14.2539 7.87781 14.1108 7.81345 13.9601 7.81345C13.8095 7.81345 13.6663 7.87781 13.5665 7.9902L12.9924 8.63612C12.8045 8.84738 12.5349 8.96863 12.2514 8.96863H3.21931C2.96234 9.69896 2.79445 10.4703 2.72729 11.2711H11.2538C11.4035 11.2711 11.5472 11.21 11.6507 11.1023L12.4449 10.2768C12.5443 10.1737 12.6809 10.1154 12.8245 10.1154H12.8572C13.0078 10.1154 13.151 10.1798 13.2508 10.2922L13.92 11.0454C14.0473 11.1885 14.2302 11.2706 14.4223 11.2706H21.3819C21.3147 10.4703 21.1473 9.69849 20.8898 8.96817H17.1748L17.1753 8.96863Z"
        fill="white"
    />
    <path
        d="M7.88715 16.1119C8.03685 16.1119 8.18049 16.0508 8.28402 15.9431L9.07824 15.1176C9.17758 15.0146 9.31422 14.9563 9.4574 14.9563H9.49004C9.64068 14.9563 9.78385 15.0206 9.88365 15.133L10.5529 15.8862C10.6802 16.0294 10.863 16.1115 11.0552 16.1115H20.4869C20.8399 15.3844 21.0992 14.6037 21.2531 13.7862H12.2001C12.0079 13.7862 11.8251 13.7041 11.6978 13.5609L11.0286 12.8077C10.9288 12.6953 10.7856 12.631 10.635 12.631C10.4843 12.631 10.3412 12.6953 10.2414 12.8077L9.66726 13.4537C9.47932 13.6649 9.20976 13.7862 8.92621 13.7862H2.85555C3.00991 14.6037 3.26875 15.3844 3.62178 16.1115H7.88668L7.88715 16.1119Z"
        fill="white" />
    <path
        d="M14.5781 6.4526C14.7278 6.4526 14.8714 6.3915 14.9749 6.28377L15.7692 5.45831C15.8685 5.35524 16.0051 5.29695 16.1488 5.29695H16.1814C16.3321 5.29695 16.4752 5.3613 16.575 5.4737L17.2443 6.22688C17.3716 6.37005 17.5544 6.45213 17.7466 6.45213H19.5402C17.8319 4.19026 15.1149 2.72728 12.0546 2.72728C8.9943 2.72728 6.27726 4.19026 4.56897 6.45213L14.5781 6.4526Z"
        fill="white" />
    <path
        d="M8.52233 18.4167C8.33019 18.4167 8.14738 18.3346 8.02006 18.1915L7.35083 17.4383C7.25103 17.3259 7.10785 17.2615 6.95722 17.2615C6.80658 17.2615 6.66341 17.3259 6.56361 17.4383L5.98951 18.0842C5.80157 18.2955 5.53201 18.4167 5.24846 18.4167H5.21022C6.91897 20.2407 9.35246 21.3823 12.0546 21.3823C14.7567 21.3823 17.1897 20.2407 18.8989 18.4167H8.52233Z"
        fill="white" />
</svg>
    